<?xml version="1.0" ?><svg height="512px" id="Layer_1" style="enable-background:new 0 0 512 512;" version="1.1" viewBox="0 0 512 512" width="512px" xml:space="preserve" xmlns="http://www.w3.org/2000/svg" xmlns:cc="http://creativecommons.org/ns#" xmlns:dc="http://purl.org/dc/elements/1.1/" xmlns:inkscape="http://www.inkscape.org/namespaces/inkscape" xmlns:rdf="http://www.w3.org/1999/02/22-rdf-syntax-ns#" xmlns:sodipodi="http://sodipodi.sourceforge.net/DTD/sodipodi-0.dtd" xmlns:svg="http://www.w3.org/2000/svg"><defs id="defs19"/><g id="g3004"><path d="m 511.672,255.92999 c 0,141.3849 -114.61511,256 -256,256 -141.3849,0 -256.00000293,-114.6151 -256.00000293,-256 C -0.32800293,114.5451 114.2871,-0.07000732 255.672,-0.07000732 c 141.38489,0 256,114.61510732 256,255.99999732 z" id="circle8" style="fill:#ff5100;fill-opacity:1"/><path d="m 73.320639,275.8556 -2.7106,23.7109 2.7106,23.30402 c 0.100641,0.98058 0.713354,1.66505 1.487477,1.66505 0.749505,0 1.360007,-0.67786 1.478776,-1.65504 l 3.213907,-23.31403 -3.213907,-23.71758 c -0.113882,-0.97713 -0.73282,-1.66588 -1.478776,-1.66588 -0.773474,0 -1.387538,0.68872 -1.487477,1.67256 z m 21.791332,-14.62943 c 0,0.008 -3.645521,38.33699 -3.645521,38.33699 l 3.645521,37.48904 c 0.103289,1.00561 0.753081,1.73092 1.543226,1.73092 0.77493,0 1.410712,-0.70872 1.538167,-1.72007 l 4.146656,-37.49989 -4.141584,-38.33699 c -0.127125,-1.01885 -0.76182,-1.72258 -1.543239,-1.72258 -0.785789,0 -1.436044,0.727 -1.543226,1.72258 z m 20.479839,-8.38111 -3.26823,46.73312 3.26823,45.21479 c 0.0874,1.39991 1.02905,2.45714 2.17761,2.45714 1.13551,0 2.07333,-1.05885 2.17399,-2.45714 l 3.71722,-45.21479 -3.71722,-46.74313 c -0.0993,-1.40074 -1.037,-2.45797 -2.17399,-2.45797 -1.14849,0 -2.08491,1.05805 -2.17761,2.46798 z m 20.67102,3.38346 -3.08139,43.35048 3.08139,45.58751 c 0.0887,1.60835 1.15287,2.82482 2.49263,2.82482 1.32024,0 2.38835,-1.21735 2.48756,-2.82065 l 3.50142,-45.59168 -3.50142,-43.37049 c -0.094,-1.60169 -1.16372,-2.80899 -2.48756,-2.80899 -1.34045,0 -2.40863,1.21735 -2.49263,2.829 z m 20.67971,-27.16441 -2.90469,70.53241 2.90469,45.58332 c 0.0755,1.78179 1.49761,3.18586 2.99377,3.18586 1.48819,0 2.99956,-1.41075 2.99956,-3.19669 l 3.09008,-45.57249 -3.37758,-70.53241 c -0.09,-1.79094 -1.41579,-3.2017 -2.90398,-3.2017 -1.4947,0 -2.73088,1.40992 -2.80185,3.2017 z m 20.66305,-16.12021 c 0,0.006 -2.70988,86.66679 -2.70988,86.66679 l 2.71568,45.29568 c 0.0675,1.97938 1.43967,3.54604 3.12194,3.54604 1.66707,0 3.04229,-1.56666 3.12195,-3.56272 l 3.06328,-45.279 -3.06328,-86.66679 c -0.0834,-2.00023 -1.45561,-3.56189 -3.12266,-3.56189 -1.68156,0 -3.05315,1.565 -3.12703,3.56189 z m 20.48274,-10.38884 -2.3362,97.0648 2.3391,44.55362 c 0.057,2.38793 2.06681,4.2756 4.1119,4.2756 2.04146,0 4.11407,-1.88767 4.11407,-4.28977 l 2.26958,-44.53694 -2.80909,-97.06815 c -0.0649,-2.40877 -1.89591,-4.30061 -3.93304,-4.30061 -2.04943,0 -3.70055,1.886 -3.75632,4.30145 z m 20.48418,5.95066 -1.9618,91.13332 1.9618,43.85325 c 0.0477,2.7923 2.02699,5.00015 4.44285,5.00015 2.40863,0 4.43561,-2.20451 4.43561,-5.03017 l 2.15227,-43.81823 -2.22541,-91.145 c -0.0583,-2.82149 -2.00309,-5.03099 -4.41171,-5.03099 -2.41224,0 -4.34654,2.20867 -4.39361,5.03767 z m 20.952,-27.12855 -2.05667,118.28521 2.06247,42.9261 c 0.0358,3.13916 2.53174,5.72135 5.26986,5.72135 2.73234,0 5.26914,-2.58386 5.26914,-5.76805 l 1.98933,-42.8794 -2.36228,-118.29439 c -0.0397,-3.17168 -2.41152,-5.75971 -5.14386,-5.75971 -2.73884,0 -4.98671,2.58803 -5.02799,5.76889 z m 138.61621,66.37018 c -3.62961,-47.32258 -38.09699,-84.44226 -80.13931,-84.44226 -10.28845,0 -20.26983,2.3304 -29.12584,6.27498 -3.44131,1.53249 -4.34509,3.11249 -4.34509,6.17244 l 0,166.65003 c 0,3.21337 2.15589,5.89062 4.87809,6.20496 0.1152,0.0146 125.57587,0.0874 126.38913,0.0874 25.18484,0 45.59226,-23.51079 45.59226,-52.51034 0,-28.99954 -20.42698,-52.51451 -45.61037,-52.51451 -6.24751,0 -12.21042,1.45577 -17.63887,4.07716 z" id="Oval-1" style="fill:#ffffff"/></g><g id="Layer_1_1_"/></svg>